<svg width="180" height="180" viewBox="0 0 180 180" fill="none" xmlns="http://www.w3.org/2000/svg">
<circle cx="90" cy="90" r="90" fill="url(#paint0_linear_62_66)"/>
<path d="M72.46 58.93H85.96C90.34 58.93 93.64 59.68 95.86 61.18C98.14 62.68 99.28 65.29 99.28 69.01V118.87C99.28 120.97 98.95 122.35 98.29 123.01C97.69 123.67 96.37 124 94.33 124H84.88V70.09C84.88 69.13 84.73 68.47 84.43 68.11C84.19 67.69 83.53 67.48 82.45 67.48H72.46V58.93ZM39.79 124H30.34C28.3 124 26.95 123.67 26.29 123.01C25.69 122.35 25.39 120.97 25.39 118.87V62.53C25.39 61.45 25.69 60.58 26.29 59.92C26.89 59.26 27.67 58.93 28.63 58.93H39.79V124ZM43.48 58.93H66.52C67.48 58.93 68.26 59.26 68.86 59.92C69.46 60.58 69.76 61.45 69.76 62.53V117.43H60.4C58.6 117.43 57.31 116.95 56.53 115.99C55.75 114.97 55.36 113.35 55.36 111.13V70.09C55.36 69.13 55.21 68.47 54.91 68.11C54.67 67.69 54.01 67.48 52.93 67.48H43.48V58.93ZM127.442 124H126.362C123.962 124 121.952 123.82 120.332 123.46C118.772 123.1 117.392 122.38 116.192 121.3C115.052 120.16 114.152 118.9 113.492 117.52C112.892 116.14 112.412 114.07 112.052 111.31C111.512 107.17 111.242 101.62 111.242 94.66C111.242 87.64 111.272 82.69 111.332 79.81C111.452 76.93 111.692 74.14 112.052 71.44C112.412 68.68 112.892 66.64 113.492 65.32C114.152 63.94 115.052 62.71 116.192 61.63C117.392 60.49 118.772 59.77 120.332 59.47C121.952 59.11 123.962 58.93 126.362 58.93H127.442V124ZM131.042 58.93H142.472C146.852 58.93 150.152 59.68 152.372 61.18C154.652 62.68 155.792 65.29 155.792 69.01V77.11C155.792 78.37 155.372 79 154.532 79H143.192C142.352 79 141.842 78.88 141.662 78.64C141.482 78.4 141.392 77.89 141.392 77.11V70.09C141.392 69.13 141.242 68.47 140.942 68.11C140.702 67.69 140.042 67.48 138.962 67.48H131.042V58.93ZM143.192 103.93H154.532C155.372 103.93 155.792 104.56 155.792 105.82V113.92C155.792 117.64 154.652 120.25 152.372 121.75C150.152 123.25 146.852 124 142.472 124H131.042V115.45H138.962C140.042 115.45 140.702 115.27 140.942 114.91C141.242 114.49 141.392 113.8 141.392 112.84V105.82C141.392 105.04 141.482 104.53 141.662 104.29C141.842 104.05 142.352 103.93 143.192 103.93Z" fill="#1C0C5F" fill-opacity="0.79"/>
<defs>
<linearGradient id="paint0_linear_62_66" x1="-15" y1="8.5" x2="146.5" y2="180" gradientUnits="userSpaceOnUse">
<stop stop-color="white"/>
<stop offset="1" stop-color="#DBE7FF"/>
</linearGradient>
</defs>
</svg>
